Coordinates
version=1
nRows=29
nColumns=24
inDegrees=yes

Units are S.I. units (second, meters, Newtons, ...)
Angles are in degrees.

endheader
time	pelvis_tilt	pelvis_list	pelvis_rotation	pelvis_tx	pelvis_ty	pelvis_tz	hip_flexion_r	hip_adduction_r	hip_rotation_r	knee_angle_r	ankle_angle_r	subtalar_angle_r	mtp_angle_r	hip_flexion_l	hip_adduction_l	hip_rotation_l	knee_angle_l	ankle_angle_l	subtalar_angle_l	mtp_angle_l	lumbar_extension	lumbar_bending	lumbar_rotation
      1.19350000	     -4.79812118	     -3.76392451	    -10.88758155	     -0.03435557	      0.86731355	      0.37757683	    -15.44043093	      6.64434155	      7.02324187	     -9.35022056	     19.34487644	     10.09640541	      9.88689910	     33.27400292	     -8.60354692	    -11.51134668	     -0.68010472	      4.19134341	     -3.35745064	      1.76263081	     -3.12822585	      5.04311381	     12.82512492
      1.19766667	     -4.80825902	     -3.68193902	    -10.98954255	     -0.02848413	      0.86641257	      0.37751251	    -15.57908459	      6.45161651	      6.97701547	     -9.82497278	     19.31666024	     10.28525737	     10.15845803	     33.40580886	     -8.56733671	    -11.63203319	     -1.22556904	      4.27542667	     -3.37900463	      1.72935726	     -3.07823671	      4.86383493	     12.89790744
      1.20183333	     -4.75540529	     -3.57718866	    -11.06367233	     -0.02249207	      0.86564052	      0.37739071	    -15.80062101	      6.21811159	      6.86798263	    -10.25392023	     19.17628849	     10.52515216	     12.06065728	     33.46745377	     -8.48768699	    -11.83646062	     -1.82262031	      4.31458588	     -3.26959599	      1.62022919	     -3.09268410	      4.66211748	     12.97168381
      1.20600000	     -4.81700841	     -3.49490076	    -11.13807733	     -0.01654733	      0.86472378	      0.37729561	    -15.87682884	      6.05274517	      6.90189796	    -10.75096195	     19.06337023	     10.47903516	     12.16232333	     33.63055963	     -8.43662787	    -11.79869178	     -2.41820460	      4.26563413	     -3.50888581	      1.62341287	     -2.97073499	      4.49148662	     12.96486028
      1.21016667	     -4.84315397	     -3.38084653	    -11.19375761	     -0.01049317	      0.86389149	      0.37714507	    -15.98447009	      5.84049633	      6.85078100	    -11.24971335	     18.90179829	     10.56828960	     12.32166498	     33.74857716	     -8.33827818	    -11.82139405	     -3.04528518	      4.17435675	     -3.67408931	      1.63948658	     -2.87180545	      4.27516550	     12.97903694
      1.21433333	     -4.86451206	     -3.25223945	    -11.23388063	     -0.00437620	      0.86310494	      0.37696738	    -16.08998960	      5.61583809	      6.79058789	    -11.75955579	     18.71390209	     10.65240915	     12.52947958	     33.85317611	     -8.21473708	    -11.84017215	     -3.69481456	      4.01933733	     -3.83613610	      1.67124932	     -2.77619349	      4.03995410	     12.97744066
      1.21850000	     -4.83366827	     -3.10094793	    -11.25271338	      0.00182362	      0.86243778	      0.37671880	    -16.23635968	      5.35200700	      6.64810157	    -12.28314424	     18.45585918	     10.77696782	     15.52601468	     33.86345260	     -8.03533384	    -11.81634171	     -4.28812190	      3.68214167	     -4.14176962	      2.28972871	     -2.73972054	      3.78825881	     12.97503439
      1.22266667	     -4.89107472	     -2.96516977	    -11.25905420	      0.00804041	      0.86166745	      0.37648889	    -16.29791339	      5.14209814	      6.62898137	    -12.80316604	     18.15572713	     10.72290839	     15.57956741	     34.01545736	     -7.89023719	    -11.79778923	     -5.01922288	      3.48941116	     -4.31119981	      2.30741669	     -2.57812799	      3.54502921	     12.93511568
      1.22683333	     -4.94676006	     -2.81313781	    -11.25451630	      0.01428918	      0.86093693	      0.37620138	    -16.32435862	      4.91226877	      6.54222945	    -13.39243961	     17.89411941	     10.76352645	     15.77395012	     34.14488934	     -7.71099703	    -11.73576841	     -5.71853647	      3.11219631	     -4.62220472	      2.37016935	     -2.42004209	      3.30669277	     12.86056057
      1.23100000	     -4.99697642	     -2.63296239	    -11.23587579	      0.02059968	      0.86026445	      0.37586621	    -16.33576623	      4.65263765	      6.42874796	    -14.01081467	     17.56668325	     10.79972377	     16.15393638	     34.23862449	     -7.48113762	    -11.60741032	     -6.36797221	      2.65071216	     -5.04870553	      2.49733960	     -2.26351860	      3.02215122	     12.77590548
      1.23516667	     -4.96539552	     -2.41833475	    -11.18740238	      0.02703853	      0.85977967	      0.37547764	    -16.45068325	      4.33961079	      6.26552495	    -14.57403514	     17.09143136	     10.80528091	     18.38531979	     34.20841483	     -7.17893938	    -11.48680446	     -6.95057047	      2.06879078	     -5.49991686	      3.28261312	     -2.19485184	      2.66851525	     12.72438790
      1.23933333	     -5.08127644	     -2.23093431	    -11.14417138	      0.03342363	      0.85909065	      0.37512389	    -16.37402406	      4.10241428	      6.20038080	    -15.22235658	     16.64811133	     10.71609518	     18.46482740	     34.42114149	     -6.95534559	    -11.44906655	     -7.73593760	      1.64729139	     -5.68210355	      3.31044981	     -1.93195435	      2.36748763	     12.64078196
      1.24350000	     -5.17038534	     -2.02431199	    -11.08320990	      0.03984906	      0.85849572	      0.37470566	    -16.29892874	      3.83843253	      6.08429712	    -15.91331923	     16.17409682	     10.67324337	     18.59717077	     34.57909226	     -6.68417459	    -11.35720213	     -8.46309254	      1.09474060	     -6.00250812	      3.35182399	     -1.70651040	      2.04930002	     12.53357225
      1.24766667	     -5.26721979	     -1.81624125	    -11.00260059	      0.04625494	      0.85791851	      0.37420161	    -16.17498501	      3.57484504	      5.91533962	    -16.68059528	     15.76186279	     10.68677243	     18.96083839	     34.74151510	     -6.38206141	    -11.13215363	     -9.17266089	      0.43754892	     -6.63746209	      3.46481664	     -1.48614736	      1.76312424	     12.36303737
      1.25183333	     -5.35944710	     -1.58024749	    -10.91174840	      0.05273353	      0.85740992	      0.37368600	    -16.04671116	      3.28296407	      5.74844177	    -17.44991899	     15.23320160	     10.65680325	     19.42423698	     34.89868221	     -6.05296496	    -10.97664548	     -9.89248562	     -0.20758384	     -7.10759305	      3.60422994	     -1.25156176	      1.41832701	     12.22535844
      1.25600000	     -5.41566135	     -1.32968319	    -10.79588590	      0.05927717	      0.85700308	      0.37313035	    -15.95058590	      2.96923489	      5.52785064	    -18.20688716	     14.52065045	     10.58041022	     23.86780213	     35.02455368	     -5.69405235	    -10.84116051	    -10.63720964	     -0.77913102	     -7.48402066	      4.97602801	     -1.06292820	      1.03409687	     12.15045906
      1.26016667	     -5.51737252	     -1.09131819	    -10.68176119	      0.06580104	      0.85658404	      0.37259603	    -15.78367649	      2.68757960	      5.37713234	    -19.01487024	     13.84934819	     10.51321167	     23.90527222	     35.22722772	     -5.36873278	    -10.75171390	    -11.45613770	     -1.30955885	     -7.74027224	      4.98751985	     -0.81844538	      0.66980872	     12.01733202
      1.26433333	     -5.63957623	     -0.85275771	    -10.55328239	      0.07227457	      0.85614971	      0.37197253	    -15.53626484	      2.40662011	      5.16368188	    -19.93520378	     13.25480337	     10.49114250	     24.07772115	     35.46273364	     -5.02159380	    -10.55176991	    -12.29029696	     -1.86706367	     -8.24794628	      5.02679193	     -0.57161963	      0.34590089	     11.82930836
      1.26850000	     -5.74154016	     -0.59275016	    -10.40875494	      0.07880556	      0.85580114	      0.37133583	    -15.29998666	      2.10092927	      4.93421174	    -20.85812778	     12.56916271	     10.46387489	     24.33474416	     35.67853129	     -4.64922364	    -10.39515890	    -13.14055834	     -2.36342350	     -8.63701099	      5.07596127	     -0.32673221	     -0.02819411	     11.67180480
      1.27266667	     -5.84514771	     -0.33251405	    -10.25484270	      0.08534290	      0.85549056	      0.37068078	    -15.03865514	      1.79633498	      4.69763861	    -21.81799610	     11.84172385	     10.43338595	     24.65045458	     35.91164459	     -4.27815251	    -10.25007673	    -14.03476236	     -2.78789986	     -8.97406494	      5.12658514	     -0.08703247	     -0.40606829	     11.52152271
      1.27683333	     -5.89074236	     -0.05497166	    -10.08610243	      0.09193459	      0.85531423	      0.36999798	    -14.82863951	      1.45796792	      4.41871086	    -22.77310881	     10.99227254	     10.36975180	     28.40725695	     36.07907683	     -3.87367193	    -10.10873421	    -14.94057938	     -3.11730544	     -9.29976973	      5.65217197	      0.08906616	     -0.83866212	     11.42115581
      1.28100000	     -5.95604529	      0.21138582	     -9.90862537	      0.09852863	      0.85515993	      0.36930640	    -14.58250422	      1.14136942	      4.16847323	    -23.75464787	     10.10529335	     10.31766508	     28.42839058	     36.28579149	     -3.49118415	    -10.00948017	    -15.90142720	     -3.33439355	     -9.45705873	      5.65342334	      0.27616537	     -1.23601395	     11.30728566
      1.28516667	     -6.05614529	      0.46995461	     -9.72882285	      0.10504463	      0.85495988	      0.36856669	    -14.23300003	      0.83200232	      3.88057207	    -24.86223577	      9.31965815	     10.30854365	     28.54016197	     36.54547867	     -3.11354532	     -9.85653513	    -16.89210032	     -3.56436005	     -9.74894761	      5.65084344	      0.50030444	     -1.59009813	     11.12022082
      1.28933333	     -6.08516632	      0.74886524	     -9.53537765	      0.11165202	      0.85492837	      0.36782721	    -13.97200077	      0.48857676	      3.58744174	    -25.92344419	      8.39685312	     10.28454297	     28.64122434	     36.71009233	     -2.70207154	     -9.72665795	    -17.86994278	     -3.64541102	     -9.93179831	      5.64628665	      0.64984372	     -2.02767759	     11.00835171
      1.29350000	     -6.13785284	      1.02426115	     -9.33924067	      0.11819590	      0.85487225	      0.36702939	    -13.62659453	      0.14066594	      3.24755561	    -27.09181985	      7.53664081	     10.30316584	     28.87352915	     36.91026364	     -2.29084598	     -9.57720464	    -18.86498297	     -3.74116471	    -10.18334396	      5.62477938	      0.81228703	     -2.40339846	     10.83671929
      1.29766667	     -6.08656116	      1.29762423	     -9.12984592	      0.12482428	      0.85503276	      0.36623866	    -13.41548319	     -0.22096959	      2.90372349	    -28.19746016	      6.53611305	     10.24705432	     28.94722342	     36.98204482	     -1.86751533	     -9.47899117	    -19.85790596	     -3.65497472	    -10.30581016	      5.61748674	      0.86052665	     -2.81565407	     10.77829728
      1.30183333	     -6.06492054	      1.63012406	     -8.87978011	      0.13144999	      0.85516630	      0.36529371	    -13.12204240	     -0.66261302	      2.43343569	    -29.38009681	      5.56857669	     10.38142361	     30.92168159	     37.04569969	     -1.32441891	     -9.20190844	    -20.73022925	     -3.71730059	    -10.71690304	      5.27645245	      0.93526050	     -3.31030705	     10.51900594
      1.30600000	     -6.04722137	      1.90040644	     -8.69751123	      0.13800483	      0.85534904	      0.36453319	    -12.80014141	     -1.02473741	      2.14043985	    -30.59051995	      4.51374917	     10.29864214	     30.97700295	     37.13874048	     -0.93268821	     -9.15243392	    -21.71554417	     -3.50645530	    -10.69886100	      5.26435590	      1.00691006	     -3.72265215	     10.48876322
      1.31016667	     -6.01620279	      2.17955678	     -8.48259665	      0.14454345	      0.85555651	      0.36368069	    -12.45832267	     -1.41318658	      1.74733008	    -31.86015665	      3.49430874	     10.28577691	     31.10760123	     37.20099409	     -0.50012512	     -9.05647127	    -22.65215785	     -3.33676948	    -10.73366158	      5.22032536	      1.06592281	     -4.11718616	     10.38746312
